<svg xmlns="http://www.w3.org/2000/svg" xmlns:xlink="http://www.w3.org/1999/xlink" width="90" height="90" viewBox="0 0 90 90"><defs><style>.a,.d{fill:#17479e;}.a{stroke:#707070;}.b{fill:#f9a870;opacity:0.8;}.c{clip-path:url(#a);}.e{fill:none;}</style><clipPath id="a"><rect class="a" width="90" height="90" transform="translate(229 991)"/></clipPath></defs><g transform="translate(-461 -1002)"><circle class="b" cx="44.5" cy="44.5" r="44.5" transform="translate(462 1003)"/><g class="c" transform="translate(232 11)"><g transform="translate(229.002 991)"><g transform="translate(0 0)"><path class="d" d="M87.8,29.182,77.07,21.624l-6.789-4.777-8.959-6.3-2.992-2.1L55.286,6.3,47.482.819a4.5,4.5,0,0,0-5.162,0L2.024,29.182a4.479,4.479,0,0,0,1.8,8.084,3.937,3.937,0,0,0,.77.07,4.372,4.372,0,0,0,2.572-.822l1.907-1.33V85.121A4.488,4.488,0,0,0,13.555,89.6h62.71a4.488,4.488,0,0,0,4.479-4.479V35.167l1.907,1.347A4.478,4.478,0,1,0,87.8,29.182ZM77.752,85.1a1.486,1.486,0,0,1-1.487,1.487H13.555A1.486,1.486,0,0,1,12.068,85.1V33.067L44.91,9.953,77.752,33.067Zm8.994-52.124a1.529,1.529,0,0,1-.875,1.242,1.5,1.5,0,0,1-1.5-.157L45.767,6.909a1.471,1.471,0,0,0-1.715,0L5.454,34.064a1.5,1.5,0,0,1-1.715-2.45L44.052,3.252a1.471,1.471,0,0,1,1.715,0L86.081,31.615A1.543,1.543,0,0,1,86.746,32.979Z" transform="translate(-0.118 -0.006)"/><path class="d" d="M54.17,18.994a20.5,20.5,0,0,0-14.19,5.827,20.39,20.39,0,0,0-14.19-5.827c-8.784,0-15.678,8.661-15.678,19.7,0,11.863,7.7,28.276,29.4,35.467a1.457,1.457,0,0,0,.945,0c21.7-7.191,29.4-23.6,29.4-35.467C69.848,27.655,62.954,18.994,54.17,18.994ZM39.98,71.188C20.156,64.417,13.1,49.492,13.1,38.714c0-9.379,5.564-16.727,12.686-16.727a17.74,17.74,0,0,1,13.018,5.967,1.528,1.528,0,0,0,1.172.577,1.475,1.475,0,0,0,1.172-.577A17.741,17.741,0,0,1,54.17,21.986c7.121,0,12.685,7.349,12.685,16.727C66.856,49.492,59.8,64.417,39.98,71.188Z" transform="translate(4.812 9.36)"/><path class="d" d="M42.148,41.562C40.521,38.64,38.491,35,34.047,35s-6.474,3.639-8.1,6.561a19.5,19.5,0,0,1-1.837,2.922,8.414,8.414,0,0,0-1.417,8.4,5.254,5.254,0,0,0,5.074,3.027,9.272,9.272,0,0,0,3.692-.857,6.652,6.652,0,0,1,2.59-.647,6.652,6.652,0,0,1,2.59.647,9.578,9.578,0,0,0,3.692.857A5.24,5.24,0,0,0,45.4,52.9a8.413,8.413,0,0,0-1.417-8.4,19.671,19.671,0,0,1-1.837-2.94Zm.542,10.061a2.343,2.343,0,0,1-2.362,1.295,6.652,6.652,0,0,1-2.59-.647,9.578,9.578,0,0,0-3.692-.857,9.272,9.272,0,0,0-3.692.857,6.652,6.652,0,0,1-2.59.647A2.318,2.318,0,0,1,25.4,51.623a5.425,5.425,0,0,1,1-5.214,21.49,21.49,0,0,0,2.17-3.394c1.75-3.132,2.992-5.039,5.494-5.039s3.744,1.907,5.494,5.039a22.32,22.32,0,0,0,2.17,3.394,5.457,5.457,0,0,1,.962,5.214Z" transform="translate(10.745 17.255)"/><path class="d" d="M21.221,33.449c.647,3.709,3.394,6.4,6.334,6.4a4.351,4.351,0,0,0,.822-.07,5.513,5.513,0,0,0,3.9-3.062,8.954,8.954,0,0,0-1.75-10.1,5.244,5.244,0,0,0-8.609,1.5,8.713,8.713,0,0,0-.7,5.319ZM24.6,29.477a2.591,2.591,0,0,1,1.75-1.47,2.009,2.009,0,0,1,.332-.017,2.784,2.784,0,0,1,1.82.822,5.979,5.979,0,0,1,1.137,6.561,2.591,2.591,0,0,1-1.75,1.47c-1.592.28-3.289-1.5-3.709-3.9A5.5,5.5,0,0,1,24.6,29.477Z" transform="translate(10.22 12.315)"/><path class="d" d="M26.393,38.341a5.628,5.628,0,0,0-6.754-4.147,4.87,4.87,0,0,0-3.062,2.887,6.614,6.614,0,0,0,2.45,7.874,5.211,5.211,0,0,0,2.782.857,4.563,4.563,0,0,0,1.382-.21,4.87,4.87,0,0,0,3.062-2.887,6.381,6.381,0,0,0,.14-4.374Zm-2.9,3.219a1.821,1.821,0,0,1-2.852.892,3.629,3.629,0,0,1-1.312-4.217,2,2,0,0,1,1.19-1.19,1.581,1.581,0,0,1,.49-.07,2.986,2.986,0,0,1,2.537,2.257,3.331,3.331,0,0,1-.052,2.327Z" transform="translate(7.778 16.784)"/><path class="d" d="M42.307,28.138a5.522,5.522,0,0,0-3.9-3.062c-3.237-.56-6.456,2.275-7.156,6.334s1.365,7.8,4.6,8.364a4.231,4.231,0,0,0,.822.07c2.957,0,5.687-2.695,6.334-6.4A8.4,8.4,0,0,0,42.307,28.138Zm-2.222,4.794c-.42,2.38-2.117,4.182-3.709,3.9S33.786,34.3,34.189,31.9c.385-2.222,1.89-3.919,3.377-3.919a1.077,1.077,0,0,1,.332.035,2.629,2.629,0,0,1,1.75,1.47A5.687,5.687,0,0,1,40.085,32.932Z" transform="translate(15.17 12.325)"/><path class="d" d="M44.082,34.182a5.641,5.641,0,0,0-6.754,4.147,6.48,6.48,0,0,0,.157,4.374,4.911,4.911,0,0,0,3.062,2.887,4.734,4.734,0,0,0,1.382.21,5.108,5.108,0,0,0,2.782-.857,6.614,6.614,0,0,0,2.45-7.874,4.985,4.985,0,0,0-3.08-2.887Zm.367,6.369a3.549,3.549,0,0,1-1.365,1.89,1.824,1.824,0,0,1-1.662.3,1.8,1.8,0,0,1-1.19-1.19,3.54,3.54,0,0,1-.052-2.327c.472-1.54,1.855-2.537,3.027-2.187a1.914,1.914,0,0,1,1.19,1.19,3.54,3.54,0,0,1,.052,2.327Z" transform="translate(18.085 16.779)"/></g><path class="e" d="M58.73,19.563l-6.771-4.777L43,8.47l-2.992-2.1L36.946,4.218" transform="translate(18.222 2.072)"/></g></g></g></svg>