<svg xmlns="http://www.w3.org/2000/svg" xmlns:xlink="http://www.w3.org/1999/xlink" width="90" height="90" viewBox="0 0 90 90"><defs><style>.a{fill:#fff;stroke:#707070;}.b{fill:#f9a870;opacity:0.8;}.c{clip-path:url(#a);}.d{fill:#17479e;}.e{fill:none;stroke:#17479e;stroke-miterlimit:10;stroke-width:3px;}</style><clipPath id="a"><rect class="a" width="90" height="90" transform="translate(263 987)"/></clipPath></defs><g transform="translate(-461 -1005)"><circle class="b" cx="44.5" cy="44.5" r="44.5" transform="translate(461 1006)"/><g class="c" transform="translate(198 18)"><g transform="translate(272.114 985.204)"><path class="d" d="M64.685,10.8H51.748a5.377,5.377,0,0,0-5.062-3.6H42.861a7.2,7.2,0,0,0-13.949,0H25.086a5.377,5.377,0,0,0-5.062,3.6H7.087a5.387,5.387,0,0,0-5.4,5.4V86.4a5.387,5.387,0,0,0,5.4,5.4h57.6a5.387,5.387,0,0,0,5.4-5.4V16.2A5.387,5.387,0,0,0,64.685,10.8Zm-39.6,0h5.4a1.805,1.805,0,0,0,1.8-1.8,3.6,3.6,0,0,1,7.2,0,1.805,1.805,0,0,0,1.8,1.8h5.4a1.8,1.8,0,0,1,0,3.6h-21.6a1.8,1.8,0,1,1,0-3.6Zm41.4,75.6a1.805,1.805,0,0,1-1.8,1.8H7.087a1.805,1.805,0,0,1-1.8-1.8V16.2a1.805,1.805,0,0,1,1.8-1.8H20.024A5.377,5.377,0,0,0,25.086,18h21.6a5.377,5.377,0,0,0,5.062-3.6H64.685a1.805,1.805,0,0,1,1.8,1.8Z"/><path class="d" d="M21.487,48.6h-9a1.805,1.805,0,0,0-1.8,1.8v9a1.805,1.805,0,0,0,1.8,1.8h9a1.805,1.805,0,0,0,1.8-1.8v-9A1.805,1.805,0,0,0,21.487,48.6Zm-1.8,9h-5.4V52.2h5.4Z"/><path class="d" d="M21.487,66.6h-9a1.805,1.805,0,0,0-1.8,1.8v9a1.805,1.805,0,0,0,1.8,1.8h9a1.805,1.805,0,0,0,1.8-1.8v-9A1.805,1.805,0,0,0,21.487,66.6Zm-1.8,9h-5.4V70.2h5.4Z"/><path class="d" d="M59.285,48.6h-30.6a1.8,1.8,0,1,0,0,3.6h30.6a1.8,1.8,0,1,0,0-3.6Z"/><path class="d" d="M28.686,59.4h18a1.8,1.8,0,0,0,0-3.6h-18a1.8,1.8,0,1,0,0,3.6Z"/><path class="d" d="M59.285,66.6h-30.6a1.8,1.8,0,0,0,0,3.6h30.6a1.8,1.8,0,1,0,0-3.6Z"/><path class="d" d="M46.686,73.8h-18a1.8,1.8,0,1,0,0,3.6h18a1.8,1.8,0,0,0,0-3.6Z"/><path class="e" d="M43.783,33.141l-.562.562-7.357,7.357L28.506,33.7l-.562-.562c-5.062-5.287,3.33-12.487,7.9-6.795C40.453,20.654,48.846,27.854,43.783,33.141Z"/></g></g></g></svg>