<svg xmlns="http://www.w3.org/2000/svg" xmlns:xlink="http://www.w3.org/1999/xlink" width="90" height="90" viewBox="0 0 90 90"><defs><style>.a,.d{fill:#17479e;}.a{stroke:#707070;}.b{fill:#f9a870;opacity:0.8;}.c{clip-path:url(#a);}</style><clipPath id="a"><rect class="a" width="90" height="90" transform="translate(894 999)"/></clipPath></defs><g transform="translate(-461 -1006)"><circle class="b" cx="44.5" cy="44.5" r="44.5" transform="translate(461 1006)"/><g class="c" transform="translate(-433 7)"><g transform="translate(903.882 999)"><path class="d" d="M40.8,12.584H21.924a1.573,1.573,0,1,1,0-3.146h4.719a1.578,1.578,0,0,0,1.573-1.573,3.146,3.146,0,1,1,6.292,0,1.578,1.578,0,0,0,1.573,1.573H40.8a1.573,1.573,0,0,1,0,3.146ZM59.244,79.359a4.651,4.651,0,0,0,1.494-1.711ZM56.531,9.438H45.225A4.7,4.7,0,0,0,40.8,6.292H37.458a6.3,6.3,0,0,0-12.191,0H21.924A4.7,4.7,0,0,0,17.5,9.438H6.194a4.708,4.708,0,0,0-4.719,4.719V75.505a4.708,4.708,0,0,0,4.719,4.719h35.55A16.552,16.552,0,0,1,41.39,77.1v-.02H6.194a1.578,1.578,0,0,1-1.573-1.573V14.157a1.578,1.578,0,0,1,1.573-1.573H17.5a4.7,4.7,0,0,0,4.424,3.146H40.8a4.7,4.7,0,0,0,4.424-3.146H56.531A1.578,1.578,0,0,1,58.1,14.157V61.289h.059a16.353,16.353,0,0,1,3.087.531V14.157A4.708,4.708,0,0,0,56.531,9.438Z" transform="translate(-1.475 -1.57)"/><path class="d" d="M18.778,42.472H10.913A1.578,1.578,0,0,0,9.34,44.045V51.91a1.578,1.578,0,0,0,1.573,1.573h7.865a1.578,1.578,0,0,0,1.573-1.573V44.045A1.578,1.578,0,0,0,18.778,42.472ZM17.2,50.337H12.486V45.618H17.2Z" transform="translate(-1.475 -1.57)"/><path class="d" d="M18.778,58.2H10.913A1.578,1.578,0,0,0,9.34,59.775V67.64a1.578,1.578,0,0,0,1.573,1.573h7.865a1.578,1.578,0,0,0,1.573-1.573V59.775A1.578,1.578,0,0,0,18.778,58.2ZM17.2,66.067H12.486V61.348H17.2Z" transform="translate(-1.475 -1.57)"/><path class="d" d="M51.812,42.472H25.07a1.573,1.573,0,1,0,0,3.146H51.812a1.573,1.573,0,0,0,0-3.146Z" transform="translate(-1.475 -1.57)"/><path class="d" d="M25.07,51.91H40.8a1.573,1.573,0,0,0,0-3.146H25.07a1.573,1.573,0,0,0,0,3.146Z" transform="translate(-1.475 -1.57)"/><path class="d" d="M51.812,58.2H25.07a1.573,1.573,0,0,0,0,3.146H51.812a1.573,1.573,0,1,0,0-3.146Z" transform="translate(-1.475 -1.57)"/><path class="d" d="M40.8,64.494H25.07a1.573,1.573,0,1,0,0,3.146H40.8a1.573,1.573,0,0,0,0-3.146Z" transform="translate(-1.475 -1.57)"/><g transform="translate(48.076 75.099)"><path class="d" d="M51.4,77.078H49.55a1.244,1.244,0,0,1,1.671-.157Z" transform="translate(-49.55 -76.669)"/></g><g transform="translate(40.899 60.663)"><path class="d" d="M61.25,62.842a15.062,15.062,0,0,0-3.146-.57c-.354-.02-.708-.039-1.062-.039A14.694,14.694,0,0,0,42.373,76.9v.177a15.129,15.129,0,0,0,.374,3.146,14.673,14.673,0,1,0,18.5-17.382ZM57.042,88.62a11.739,11.739,0,0,1-11.247-8.4,11.935,11.935,0,0,1-.472-3.146V76.9A11.736,11.736,0,0,1,57.042,65.182a9.609,9.609,0,0,1,1.062.059,11.694,11.694,0,0,1,10.657,11.68A11.719,11.719,0,0,1,57.042,88.62Z" transform="translate(-42.373 -62.233)"/><path class="d" d="M64.573,73.224l-3.834,4.424-1.494,1.711h0l-2.124,2.458a2.335,2.335,0,0,1-3.205.315L51.438,80.2l-1.73-1.337a1.209,1.209,0,0,1-.216-1.73c.02-.02.039-.059.059-.079h1.868l3.933,3.028,5.919-6.843,1.455-1.671a1.242,1.242,0,0,1,1.75-.118A1.326,1.326,0,0,1,64.573,73.224Z" transform="translate(-42.373 -62.233)"/></g><g transform="translate(19.067 17.936)"><path class="d" d="M41.331,23.792a12.529,12.529,0,0,0-2.1-2.576A3.856,3.856,0,0,0,35.786,20.1a2.73,2.73,0,0,0-.885.374,6.165,6.165,0,0,0-3.52-.963,6.184,6.184,0,0,0-3.579,1,3.208,3.208,0,0,0-.846-.354,3.868,3.868,0,0,0-3.441,1.121,12.529,12.529,0,0,0-2.1,2.576c-.944,1.593-1.121,2.949-.531,4.011a3.263,3.263,0,0,0,2.438,1.671,10.215,10.215,0,0,0-.157,1.77,6.2,6.2,0,0,0,.9,3.382,5.468,5.468,0,0,0,2.281,1.966,11.664,11.664,0,0,0,5.014.924,11.664,11.664,0,0,0,5.014-.924,5.721,5.721,0,0,0,2.281-1.966,6.124,6.124,0,0,0,.9-3.382,11.155,11.155,0,0,0-.157-1.848,3.214,3.214,0,0,0,2.438-1.671,2.687,2.687,0,0,0,.354-1.357A5.438,5.438,0,0,0,41.331,23.792Zm-3.225-1.317a10.294,10.294,0,0,1,1.77,2.183c.433.708.865,1.691.511,2.32a1.577,1.577,0,0,1-1.435.846c-.1-.275-.2-.551-.315-.846-.157-.433-.334-.885-.511-1.4a12.34,12.34,0,0,0-1.888-3.854A2.3,2.3,0,0,1,38.107,22.475ZM24.6,25.581c-.177.531-.334.963-.511,1.4h0c-.118.315-.236.61-.334.9a1.546,1.546,0,0,1-1.416-.846c-.354-.629.079-1.612.511-2.32a10.939,10.939,0,0,1,1.77-2.183,2.52,2.52,0,0,1,1.652-.767h.157A13.374,13.374,0,0,0,24.6,25.581Zm6.764,5.742a1.117,1.117,0,0,1-.531-.315.91.91,0,0,1-.315-.531c0-.079.02-.1.059-.118a2.281,2.281,0,0,1,.787-.079,2.281,2.281,0,0,1,.787.079c.059.02.059.02.059.118a1.037,1.037,0,0,1-.315.531A.969.969,0,0,1,31.362,31.323Zm6.371,1.337a4.09,4.09,0,0,1-.472,1.121,3.913,3.913,0,0,1-1.593,1.376,8.609,8.609,0,0,1-3.441.728V32.817a3.276,3.276,0,0,0,.865-.61,2.609,2.609,0,0,0,.806-1.73,1.776,1.776,0,0,0-1.1-1.671,3.492,3.492,0,0,0-1.435-.216,3.552,3.552,0,0,0-1.435.216,1.776,1.776,0,0,0-1.1,1.671,2.532,2.532,0,0,0,.826,1.73,3.158,3.158,0,0,0,.865.61v3.067a8.688,8.688,0,0,1-3.441-.728,3.79,3.79,0,0,1-1.593-1.376,4.468,4.468,0,0,1-.649-2.478,9.547,9.547,0,0,1,.826-3.736c.177-.452.334-.9.531-1.455a10.5,10.5,0,0,1,1.77-3.539,4.254,4.254,0,0,1,3.4-1.4,4.281,4.281,0,0,1,3.4,1.4,10.149,10.149,0,0,1,1.77,3.539c.177.551.354,1.022.531,1.475a9.212,9.212,0,0,1,.826,3.736A5.8,5.8,0,0,1,37.733,32.66Z" transform="translate(-20.542 -19.506)"/></g></g></g></g></svg>