<svg xmlns="http://www.w3.org/2000/svg" xmlns:xlink="http://www.w3.org/1999/xlink" width="90" height="90" viewBox="0 0 90 90"><defs><style>.a{fill:#fff;stroke:#707070;}.b{fill:#f9a870;opacity:0.8;}.c{clip-path:url(#a);}.d,.e{fill:none;stroke:#17479e;stroke-linecap:round;stroke-linejoin:round;}.d{stroke-width:2.706px;}.e{stroke-width:2.03px;}</style><clipPath id="a"><rect class="a" width="90" height="90" transform="translate(913 1003)"/></clipPath></defs><g transform="translate(-461 -1006)"><circle class="b" cx="44.5" cy="44.5" r="44.5" transform="translate(461 1006)"/><g class="c" transform="translate(-452 3)"><g transform="translate(913.025 1015.254)"><path class="d" d="M33.419,10.357A6.839,6.839,0,1,1,29.09,1.7a6.839,6.839,0,0,1,4.33,8.653Z"/><path class="d" d="M25.748,28.461c1.394-4.736-2.111-11.331-7.381-11.5C12.84,16.737,10.3,23.116,8.044,27.108A111.977,111.977,0,0,0,2.151,39.1,9.471,9.471,0,0,0,8.416,50.691L20.694,54.6H5.946a4.533,4.533,0,0,0-4.593,3.978,4.411,4.411,0,0,0,4.384,4.837h17.1a8.558,8.558,0,0,0,8.524-9.3A8.8,8.8,0,0,0,25.9,46.875L20.972,44.3,23,37.472"/><path class="d" d="M22.359,26.472,40.983,37.418a3.876,3.876,0,0,1,1.353,5.3h0a3.876,3.876,0,0,1-5.3,1.353L19.707,33.927"/><path class="d" d="M80.964,53.809l.453,7.029A3.606,3.606,0,0,0,85.01,64.16h0a3.606,3.606,0,0,0,3.613-3.606V35a2.314,2.314,0,0,0-2.314-2.314h0a2.314,2.314,0,0,0-2.239,1.725l-2.212,8.01"/><path class="d" d="M79.415,54.885A55.85,55.85,0,0,1,73.4,55.2c-1.82,0-3.606-.081-5.324-.25"/><path class="d" d="M66.514,41.943c1.928-.21,5.5-.325,7.57-.325,1.827,0,4.614.108,6.332.271"/><path class="d" d="M65.7,41.456l.406-5.155a6.555,6.555,0,0,0-2.6-5.764h0a6.562,6.562,0,0,0-8.47.5l-3.667,3.5-1.387.582A3.2,3.2,0,0,0,48.5,39.752h0a4.154,4.154,0,0,0,3.383,1.982l.994.041a5.635,5.635,0,0,1,5.608,5.635V60.554A3.606,3.606,0,0,0,62.09,64.16h0a3.619,3.619,0,0,0,3.6-3.322l.832-6.637"/><path class="d" d="M65.865,33.927a3.133,3.133,0,0,1-5.8,2.361"/><path class="d" d="M65.763,41.774s-3.491,3.247-7.09,3.66"/><path class="e" d="M50.691,21.587l-.372.372-4.952,4.952-4.959-4.952-.372-.372c-3.383-3.565,2.253-8.423,5.331-4.58C48.445,13.165,54.121,18.022,50.691,21.587Z"/></g></g></g></svg>